<?xml version="1.0" encoding="UTF-8" standalone="no"?>
<!-- Created with Inkscape (http://www.inkscape.org/) -->

<svg
   xmlns:osb="http://www.openswatchbook.org/uri/2009/osb"
   xmlns:dc="http://purl.org/dc/elements/1.1/"
   xmlns:cc="http://creativecommons.org/ns#"
   xmlns:rdf="http://www.w3.org/1999/02/22-rdf-syntax-ns#"
   xmlns:svg="http://www.w3.org/2000/svg"
   xmlns="http://www.w3.org/2000/svg"
   xmlns:xlink="http://www.w3.org/1999/xlink"
   xmlns:sodipodi="http://sodipodi.sourceforge.net/DTD/sodipodi-0.dtd"
   xmlns:inkscape="http://www.inkscape.org/namespaces/inkscape"
   width="1052.3622"
   height="744.09448"
   id="svg2"
   version="1.1"
   inkscape:version="0.48.4 r9939"
   sodipodi:docname="flowChartHorizontal.svg">
  <defs
     id="defs4">
    <linearGradient
       id="linearGradient5390"
       osb:paint="solid">
      <stop
         style="stop-color:#ffffff;stop-opacity:1;"
         offset="0"
         id="stop5392" />
    </linearGradient>
    <linearGradient
       id="linearGradient5384"
       osb:paint="solid">
      <stop
         style="stop-color:#ffffff;stop-opacity:1;"
         offset="0"
         id="stop5386" />
    </linearGradient>
    <linearGradient
       id="linearGradient5364"
       osb:paint="gradient">
      <stop
         style="stop-color:#ffffff;stop-opacity:1;"
         offset="0"
         id="stop5366" />
      <stop
         style="stop-color:#ffffff;stop-opacity:0;"
         offset="1"
         id="stop5368" />
    </linearGradient>
    <linearGradient
       id="linearGradient6368"
       osb:paint="solid">
      <stop
         style="stop-color:#ffffff;stop-opacity:1;"
         offset="0"
         id="stop6370" />
    </linearGradient>
    <linearGradient
       inkscape:collect="always"
       xlink:href="#linearGradient5364"
       id="linearGradient5370"
       x1="194.76443"
       y1="515.0025"
       x2="424.06525"
       y2="515.0025"
       gradientUnits="userSpaceOnUse" />
    <linearGradient
       inkscape:collect="always"
       xlink:href="#linearGradient5390"
       id="linearGradient5394"
       x1="195.26443"
       y1="515.0025"
       x2="423.56525"
       y2="515.0025"
       gradientUnits="userSpaceOnUse" />
    <linearGradient
       inkscape:collect="always"
       xlink:href="#linearGradient5364"
       id="linearGradient5396"
       gradientUnits="userSpaceOnUse"
       x1="194.76443"
       y1="515.0025"
       x2="424.06525"
       y2="515.0025" />
    <linearGradient
       inkscape:collect="always"
       xlink:href="#linearGradient5364"
       id="linearGradient5398"
       gradientUnits="userSpaceOnUse"
       x1="194.76443"
       y1="515.0025"
       x2="424.06525"
       y2="515.0025" />
    <linearGradient
       inkscape:collect="always"
       xlink:href="#linearGradient5390"
       id="linearGradient5404"
       gradientUnits="userSpaceOnUse"
       x1="195.26443"
       y1="646.82239"
       x2="412.79886"
       y2="402.01404" />
    <linearGradient
       inkscape:collect="always"
       xlink:href="#linearGradient5390"
       id="linearGradient5406"
       gradientUnits="userSpaceOnUse"
       x1="195.26443"
       y1="515.0025"
       x2="423.56525"
       y2="515.0025" />
    <linearGradient
       inkscape:collect="always"
       xlink:href="#linearGradient5390"
       id="linearGradient5457"
       gradientUnits="userSpaceOnUse"
       x1="195.26443"
       y1="646.82239"
       x2="412.79886"
       y2="402.01404" />
    <linearGradient
       inkscape:collect="always"
       xlink:href="#linearGradient5364"
       id="linearGradient5459"
       gradientUnits="userSpaceOnUse"
       x1="194.76443"
       y1="515.0025"
       x2="424.06525"
       y2="515.0025" />
    <linearGradient
       inkscape:collect="always"
       xlink:href="#linearGradient5364"
       id="linearGradient3306"
       gradientUnits="userSpaceOnUse"
       x1="194.76443"
       y1="515.0025"
       x2="424.06525"
       y2="515.0025"
       gradientTransform="matrix(0.61036705,-0.37209618,0.85557966,0.72453811,-96.345257,415.76922)" />
    <linearGradient
       inkscape:collect="always"
       xlink:href="#linearGradient5364"
       id="linearGradient3309"
       gradientUnits="userSpaceOnUse"
       x1="194.76443"
       y1="515.0025"
       x2="424.06525"
       y2="515.0025"
       gradientTransform="matrix(0.57610949,-0.42320369,0.91471395,0.64828267,-84.422976,476.85321)" />
    <linearGradient
       inkscape:collect="always"
       xlink:href="#linearGradient5390"
       id="linearGradient3312"
       gradientUnits="userSpaceOnUse"
       x1="195.26443"
       y1="515.0025"
       x2="423.56525"
       y2="515.0025"
       gradientTransform="matrix(0.64427854,-0.69245094,1.6302734,0.95449733,-629.12527,535.79237)" />
    <linearGradient
       inkscape:collect="always"
       xlink:href="#linearGradient5390"
       id="linearGradient3315"
       gradientUnits="userSpaceOnUse"
       x1="195.26443"
       y1="515.0025"
       x2="423.56525"
       y2="515.0025"
       gradientTransform="matrix(0.81428896,-0.62709365,1.7616693,1.1059079,-705.41176,440.92948)" />
  </defs>
  <sodipodi:namedview
     id="base"
     pagecolor="#ffffff"
     bordercolor="#666666"
     borderopacity="1.0"
     inkscape:pageopacity="0.0"
     inkscape:pageshadow="2"
     inkscape:zoom="0.6974565"
     inkscape:cx="356.42686"
     inkscape:cy="454.06531"
     inkscape:document-units="px"
     inkscape:current-layer="layer1"
     showgrid="true"
     inkscape:snap-center="true"
     inkscape:snap-page="true"
     inkscape:window-width="1366"
     inkscape:window-height="706"
     inkscape:window-x="-8"
     inkscape:window-y="-8"
     inkscape:window-maximized="1"
     inkscape:snap-global="false">
    <inkscape:grid
       type="xygrid"
       id="grid2985"
       empspacing="1"
       visible="true"
       enabled="true"
       snapvisiblegridlinesonly="true" />
  </sodipodi:namedview>
  <metadata
     id="metadata7">
    <rdf:RDF>
      <cc:Work
         rdf:about="">
        <dc:format>image/svg+xml</dc:format>
        <dc:type
           rdf:resource="http://purl.org/dc/dcmitype/StillImage" />
        <dc:title />
      </cc:Work>
    </rdf:RDF>
  </metadata>
  <g
     inkscape:label="Layer 1"
     inkscape:groupmode="layer"
     id="layer1"
     transform="translate(0,-308.2677)">
    <g
       id="g5677"
       transform="matrix(0.8351954,-0.11986023,0.112286,0.89153335,220.26734,553.10133)">
      <path
         d="m 392.85714,635.93359 c 0,0.39449 -1.27918,0.71429 -2.85714,0.71429 -1.57796,0 -2.85714,-0.3198 -2.85714,-0.71429 0,-0.39449 1.27918,-0.71428 2.85714,-0.71428 1.57796,0 2.85714,0.31979 2.85714,0.71428 z"
         sodipodi:ry="0.71428573"
         sodipodi:rx="2.8571429"
         sodipodi:cy="635.93359"
         sodipodi:cx="390"
         id="path2993"
         style="fill:#2f1111;fill-opacity:1"
         sodipodi:type="arc" />
      <g
         id="g5435"
         transform="translate(362.77074,-72.74928)">
        <path
           sodipodi:type="arc"
           style="fill:none;stroke:#000000;stroke-width:6.29245377;stroke-miterlimit:4;stroke-opacity:1;stroke-dasharray:none"
           id="path2991"
           sodipodi:cx="381.42856"
           sodipodi:cy="634.50507"
           sodipodi:rx="55.714287"
           sodipodi:ry="43.57143"
           d="m 437.14285,634.50507 c 0,24.06383 -24.94414,43.57143 -55.71429,43.57143 -30.77015,0 -55.71429,-19.5076 -55.71429,-43.57143 0,-24.06384 24.94414,-43.57143 55.71429,-43.57143 30.77015,0 55.71429,19.50759 55.71429,43.57143 z"
           transform="matrix(0.78851891,-0.23405496,0.24135295,0.65947072,-22.474745,241.05707)" />
        <path
           sodipodi:type="arc"
           style="fill:none;stroke:#000000;stroke-width:8.05106831;stroke-miterlimit:4;stroke-opacity:1;stroke-dasharray:none"
           id="path2991-9"
           sodipodi:cx="381.42856"
           sodipodi:cy="634.50507"
           sodipodi:rx="55.714287"
           sodipodi:ry="43.57143"
           d="m 437.14285,634.50507 c 0,24.06383 -24.94414,43.57143 -55.71429,43.57143 -30.77015,0 -55.71429,-19.5076 -55.71429,-43.57143 0,-24.06384 24.94414,-43.57143 55.71429,-43.57143 30.77015,0 55.71429,19.50759 55.71429,43.57143 z"
           transform="matrix(0.53309129,-0.3611918,0.39850567,0.43256214,68.809879,411.38245)" />
        <path
           style="fill:none;stroke:#000000;stroke-width:1px;stroke-linecap:butt;stroke-linejoin:miter;stroke-opacity:1"
           d="m 381.42857,575.21933 c -1.42857,1.42857 0,0 0,0 z"
           id="path3787"
           inkscape:connector-curvature="0" />
        <path
           style="fill:none;stroke:#000000;stroke-width:5;stroke-linecap:butt;stroke-linejoin:miter;stroke-miterlimit:4;stroke-opacity:1;stroke-dasharray:none"
           d="M 386.31228,573.88797 C 220.25001,483.7698 212.71405,513.85634 212.71405,513.85634 c 0,0 -13.65158,5.1788 -8.04162,25.86 3.15928,11.64675 5.91642,17.15723 5.91642,17.15723"
           id="path3795"
           inkscape:connector-curvature="0"
           sodipodi:nodetypes="ccsc" />
        <g
           id="g5671">
          <path
             sodipodi:nodetypes="ccsc"
             inkscape:connector-curvature="0"
             id="path3795-4"
             d="M 554.35347,526.21803 C 388.29121,436.09986 380.75525,466.1864 380.75525,466.1864 c 0,0 -13.65158,5.1788 -8.04162,25.86 3.15928,11.64675 5.91642,17.15723 5.91642,17.15723"
             style="fill:none;stroke:#000000;stroke-width:5;stroke-linecap:butt;stroke-linejoin:miter;stroke-miterlimit:4;stroke-opacity:1;stroke-dasharray:none" />
          <path
             inkscape:transform-center-y="-38.571429"
             inkscape:transform-center-x="22.857143"
             transform="matrix(0.99594792,0.0899319,-0.0899319,0.99594792,58.036565,-161.49451)"
             d="m 550,602.36218 c 0,27.61424 -55.96441,50 -125,50 -69.03559,0 -125,-22.38576 -125,-50 0,-27.61423 55.96441,-50 125,-50 69.03559,0 125,22.38577 125,50 z"
             sodipodi:ry="50"
             sodipodi:rx="125"
             sodipodi:cy="602.36218"
             sodipodi:cx="425"
             id="path2989"
             style="fill:#2f1111;fill-opacity:1"
             sodipodi:type="arc" />
          <path
             transform="matrix(1.600565,0.16655796,-0.19180694,1.4613355,-12.296677,-208.69826)"
             d="m 400,402.36218 c 0,27.61424 -55.96441,50 -125,50 -69.03559,0 -125,-22.38576 -125,-50 0,-27.61423 55.96441,-50 125,-50 69.03559,0 125,22.38577 125,50 z"
             sodipodi:ry="50"
             sodipodi:rx="125"
             sodipodi:cy="402.36218"
             sodipodi:cx="275"
             id="path2987"
             style="fill:#2f1111;fill-opacity:1;stroke:#ffffff;stroke-width:1.00014567;stroke-miterlimit:4;stroke-opacity:1;stroke-dasharray:none"
             sodipodi:type="arc" />
          <path
             inkscape:connector-curvature="0"
             id="path3797"
             d="m 475.82878,563.56246 c 15.1764,-6.30333 15.80154,-3.94387 15.80154,-3.94387"
             style="fill:none;stroke:#000000;stroke-width:4.32755136;stroke-linecap:butt;stroke-linejoin:miter;stroke-miterlimit:4;stroke-opacity:1;stroke-dasharray:none" />
        </g>
      </g>
    </g>
    <rect
       style="fill:#501616;stroke:#ffffff;stroke-width:0.84200454;stroke-opacity:1"
       id="rect2990-4-1"
       width="227.05574"
       height="377.10577"
       x="-681.65942"
       y="44.472816"
       ry="28.410015"
       rx="24.82869"
       transform="matrix(-0.01199139,-0.9999281,0.99995391,-0.00960086,0,0)" />
    <rect
       style="fill:#f2f2f2;stroke:#ffffff;stroke-width:0.84201199;stroke-opacity:1"
       id="rect3010-8-5"
       width="159.97337"
       height="327.69202"
       x="-645.96704"
       y="66.44281"
       rx="6.077323"
       ry="7.2651501"
       transform="matrix(-0.01735454,-0.9998494,0.999978,-0.00663351,0,0)" />
    <rect
       style="fill:#550000;stroke:#ffffff;stroke-width:0.84671545;stroke-opacity:1"
       id="rect3063-5-7"
       width="15.456963"
       height="60.717731"
       x="466.43048"
       y="315.86487"
       rx="7.7284803"
       ry="3.5716302"
       transform="matrix(0.78193209,0.62336362,-0.7462468,0.66566937,0,0)" />
    <rect
       style="fill:#550000;stroke:#ffffff;stroke-width:0.85076433;stroke-opacity:1"
       id="rect3063-9-5-6"
       width="19.914631"
       height="135.28694"
       x="503.10818"
       y="332.89075"
       rx="9.9573154"
       ry="7.9580545"
       transform="matrix(0.85093967,0.52526343,-0.73994164,0.67267107,0,0)" />
    <path
       sodipodi:type="arc"
       style="fill:#ffffff;stroke:#ffffff;stroke-opacity:1"
       id="path3137-1"
       sodipodi:cx="630"
       sodipodi:cy="222.36218"
       sodipodi:rx="10"
       sodipodi:ry="10"
       d="m 640,222.36218 a 10,10 0 1 1 -20,0 10,10 0 1 1 20,0 z"
       transform="matrix(-0.00623358,-0.55955552,0.6344384,-0.00655731,96.073641,821.2258)" />
    <rect
       style="fill:#501616;stroke:#ffffff;stroke-width:0.84200341000000001;stroke-opacity:1"
       id="rect3244"
       width="137.90048"
       height="32.908718"
       x="178.8979"
       y="696.78986"
       rx="10.607734"
       ry="7.9904637" />
    <rect
       style="opacity:0.9557522;fill:#550000;fill-opacity:1;stroke:#ffffff;stroke-width:0.72159696;stroke-linejoin:miter;stroke-miterlimit:4;stroke-opacity:1;stroke-dasharray:none"
       id="rect5827"
       width="23.336098"
       height="22.843151"
       x="485.58728"
       y="529.46301"
       rx="3.4955471"
       ry="22.843151" />
    <g
       style="opacity:1;stroke:#ffffff;stroke-width:2.01169985999999980;stroke-linejoin:round;stroke-miterlimit:4;stroke-opacity:1;stroke-dasharray:none"
       transform="matrix(0.42173046,0,0,0.41539651,182.53956,453.95951)"
       id="g3175">
      <rect
         rx="44.006699"
         ry="44.777721"
         y="193.90518"
         x="408.00003"
         height="594.3656"
         width="402.43661"
         id="rect2990-4"
         style="fill:#501616;stroke:#ffffff;stroke-width:2.01169985999999980;stroke-linejoin:round;stroke-miterlimit:4;stroke-opacity:1;stroke-dasharray:none" />
      <rect
         ry="21.27219"
         rx="12.365709"
         y="271.04938"
         x="446.09924"
         height="409.69879"
         width="325.5025"
         id="rect3010-8"
         style="fill:#f2f2f2;stroke:#ffffff;stroke-width:2.01169985999999980;stroke-linejoin:round;stroke-miterlimit:4;stroke-opacity:1;stroke-dasharray:none" />
      <rect
         rx="13.082001"
         ry="23.421326"
         y="708.94086"
         x="575.86188"
         height="52.870293"
         width="77.220123"
         id="rect2990-1-7-2"
         style="fill:#ffffff;stroke:#ffffff;stroke-width:2.01169985999999980;stroke-linejoin:round;stroke-miterlimit:4;stroke-opacity:1;stroke-dasharray:none" />
      <rect
         transform="matrix(0.7989043,0.60145816,-0.70597109,0.70824066,0,0)"
         ry="5.7432547"
         rx="12.412826"
         y="-83.627167"
         x="572.53015"
         height="97.635345"
         width="24.825651"
         id="rect3063-5"
         style="fill:#550000;stroke:#ffffff;stroke-width:2.02139692999999990;stroke-linejoin:round;stroke-miterlimit:4;stroke-opacity:1;stroke-dasharray:none" />
      <rect
         transform="matrix(0.88183551,0.47155715,-0.67511554,0.73771201,0,0)"
         ry="12.797836"
         rx="15.9382"
         y="-34.995506"
         x="649.07874"
         height="217.56325"
         width="31.8764"
         id="rect3063-9-5"
         style="fill:#550000;stroke:#ffffff;stroke-width:2.04373488000000010;stroke-linejoin:round;stroke-miterlimit:4;stroke-opacity:1;stroke-dasharray:none" />
      <path
         transform="matrix(0.92136763,0,0,1,32.082008,4)"
         d="m 640,222.36218 c 0,5.52285 -4.47715,10 -10,10 -5.52285,0 -10,-4.47715 -10,-10 0,-5.52284 4.47715,-10 10,-10 5.52285,0 10,4.47716 10,10 z"
         sodipodi:ry="10"
         sodipodi:rx="10"
         sodipodi:cy="222.36218"
         sodipodi:cx="630"
         id="path3137"
         style="fill:#ffffff;stroke:#ffffff;stroke-width:2.09578490999999990;stroke-linejoin:round;stroke-miterlimit:4;stroke-opacity:1;stroke-dasharray:none"
         sodipodi:type="arc" />
      <rect
         rx="7.9480476"
         ry="13.576469"
         y="719.24542"
         x="589.86188"
         height="30.646936"
         width="46.915546"
         id="rect2990-1-7-2-1"
         style="fill:#550000;stroke:#ffffff;stroke-width:2.01169985999999980;stroke-linejoin:round;stroke-miterlimit:4;stroke-opacity:1;stroke-dasharray:none" />
    </g>
    <g
       id="g3166"
       transform="matrix(0.43893217,0,0,0.40783931,-7.5348984,555.07453)"
       style="stroke:#ffffff;stroke-width:1.99008024;stroke-miterlimit:4;stroke-opacity:1;stroke-dasharray:none">
      <rect
         rx="28.542185"
         ry="34.732277"
         y="94.524521"
         x="57.289322"
         height="461.02548"
         width="261.01526"
         id="rect2990"
         style="fill:#501616;stroke:#ffffff;stroke-width:1.99008024;stroke-miterlimit:4;stroke-opacity:1;stroke-dasharray:none" />
      <rect
         rx="3.7989602"
         ry="7.2690153"
         y="112.66667"
         x="172.22336"
         height="14.538031"
         width="34.741085"
         id="rect2990-1"
         style="fill:#f2f2f2;stroke:#ffffff;stroke-width:1.99008024;stroke-miterlimit:4;stroke-opacity:1;stroke-dasharray:none" />
      <rect
         ry="16.499981"
         rx="8.0202417"
         y="154.36218"
         x="82"
         height="317.78687"
         width="211.11678"
         id="rect3010"
         style="fill:#f2f2f2;stroke:#ffffff;stroke-width:1.99008024;stroke-miterlimit:4;stroke-opacity:1;stroke-dasharray:none" />
      <rect
         rx="11.005054"
         ry="16.05419"
         y="494.01703"
         x="166.16245"
         height="34.741081"
         width="44.842609"
         id="rect2990-1-7"
         style="fill:#ffffff;stroke:#ffffff;stroke-width:1.99008024;stroke-miterlimit:4;stroke-opacity:1;stroke-dasharray:none" />
      <rect
         rx="7.038547"
         ry="10.452575"
         y="500.13885"
         x="174.16245"
         height="22.619251"
         width="28.680168"
         id="rect2990-1-7-4"
         style="fill:#550000;stroke:#ffffff;stroke-width:1.99008024;stroke-miterlimit:4;stroke-opacity:1;stroke-dasharray:none" />
      <rect
         transform="matrix(0.75824959,0.65196439,-0.65755701,0.75340479,0,0)"
         ry="3.2866831"
         rx="6.9710698"
         y="39.687256"
         x="203.47878"
         height="55.873619"
         width="13.94214"
         id="rect3063"
         style="fill:#550000;stroke:#ffffff;stroke-width:1.99010754;stroke-miterlimit:4;stroke-opacity:1;stroke-dasharray:none" />
      <rect
         transform="matrix(0.85615102,0.51672569,-0.62980965,0.77674951,0,0)"
         ry="7.637445"
         rx="9.1394329"
         y="56.999756"
         x="231.41754"
         height="129.83658"
         width="18.278866"
         id="rect3063-9"
         style="fill:#550000;stroke:#ffffff;stroke-width:1.99964774;stroke-miterlimit:4;stroke-opacity:1;stroke-dasharray:none" />
    </g>
    <path
       style="opacity:0.9557522;fill:#550000;fill-opacity:1;stroke:#ffffff;stroke-width:1;stroke-linejoin:round;stroke-miterlimit:4;stroke-opacity:1;stroke-dasharray:none"
       id="path6800"
       d=""
       inkscape:connector-curvature="0" />
    <path
       id="path3062"
       style="fill:#550000;stroke:url(#linearGradient3315);stroke-width:1.41607225"
       d="m 149.63106,749.72497 c -20.88341,-13.97996 -26.19266,-6.11746 3.00057,5.35325 l 95.98636,37.71537 c 29.19321,11.4707 319.12921,96.65392 287.22531,43.99069 -9.88495,-16.31689 80.08835,84.66571 49.71799,78.93585 L 417.63617,884.03835 C 306.35722,863.04378 174.67615,766.4909 149.63106,749.72497 z"
       inkscape:connector-curvature="0"
       sodipodi:nodetypes="sssssss" />
    <path
       style="fill:#550000;stroke:url(#linearGradient3312);stroke-width:1.32054782"
       inkscape:transform-center-x="-6.121918"
       inkscape:transform-center-y="-0.9228545"
       d="m 691.40216,859.76934 4.68764,-1.15902 -159.26336,84.26673 31.15196,-70.72528 -123.64609,-72.74429 38.09148,24.06405 z"
       id="path3057"
       inkscape:connector-curvature="0"
       sodipodi:nodetypes="ccccccc" />
    <path
       id="path3062-2"
       style="fill:#550000;stroke:#ffffff;stroke-width:0.87856543;stroke-opacity:1"
       d="m 418.80997,486.67696 c -16.80246,-0.33261 -14.62697,-5.75145 4.30297,-1.51494 l 62.24104,13.92954 c 18.92993,4.23654 180.57213,60.8932 137.22366,75.01233 -13.43087,4.3746 94.26887,-18.42553 77.2095,-25.3305 L 608.97548,512.01638 C 546.46886,486.71614 438.96088,487.07583 418.80997,486.67696 z"
       inkscape:connector-curvature="0"
       sodipodi:nodetypes="sssssss" />
    <path
       style="fill:#550000;stroke:#ffffff;stroke-width:1.02733791;stroke-opacity:1"
       inkscape:transform-center-x="-11.824613"
       inkscape:transform-center-y="-18.090211"
       d="m 736.76601,606.88934 2.34892,2.53764 -54.26808,-111.07613 -15.45935,56.99093 -111.77257,4.69424 -1.40228,-0.52674 z"
       id="path3057-3"
       inkscape:connector-curvature="0"
       sodipodi:nodetypes="ccccccc" />
    <path
       id="path3062-6"
       style="fill:#550000;stroke:url(#linearGradient3309);stroke-width:0.87211931;stroke-opacity:1"
       d="m 390.24521,646.73334 c -10.72612,-8.23755 -14.99068,-3.08169 1.0907,3.30756 l 52.87502,21.00765 c 16.08136,6.38924 189.99558,50.61309 177.82545,18.14778 -3.77073,-10.05887 23.07315,60.47995 6.35604,56.58927 L 533.97161,723.81039 C 472.71901,709.55465 403.10886,656.6125 390.24521,646.73334 z"
       inkscape:connector-curvature="0"
       sodipodi:nodetypes="sssssss" />
    <path
       style="fill:#550000;stroke:url(#linearGradient3306);stroke-width:0.87211931;stroke-opacity:1"
       inkscape:transform-center-x="-12.639503"
       inkscape:transform-center-y="-11.534109"
       d="m 710.99736,726.16202 3.45363,-0.31951 -119.93845,36.80296 24.15076,-45.06643 -58.78388,-49.33496 -1.30533,-0.36359 z"
       id="path3057-8"
       inkscape:connector-curvature="0"
       sodipodi:nodetypes="ccccccc" />
    <path
       style="fill:#550000;fill-opacity:1;stroke:#ffffff;stroke-opacity:1"
       id="path5470" />
  </g>
</svg>
