<?xml version="1.0" encoding="UTF-8" standalone="no"?>
<!-- Created with Inkscape (http://www.inkscape.org/) -->

<svg
   xmlns:osb="http://www.openswatchbook.org/uri/2009/osb"
   xmlns:dc="http://purl.org/dc/elements/1.1/"
   xmlns:cc="http://creativecommons.org/ns#"
   xmlns:rdf="http://www.w3.org/1999/02/22-rdf-syntax-ns#"
   xmlns:svg="http://www.w3.org/2000/svg"
   xmlns="http://www.w3.org/2000/svg"
   xmlns:xlink="http://www.w3.org/1999/xlink"
   xmlns:sodipodi="http://sodipodi.sourceforge.net/DTD/sodipodi-0.dtd"
   xmlns:inkscape="http://www.inkscape.org/namespaces/inkscape"
   width="1052.3622"
   height="744.09448"
   id="svg2"
   version="1.1"
   inkscape:version="0.48.4 r9939"
   sodipodi:docname="diagram-h.svg">
  <defs
     id="defs4">
    <linearGradient
       id="linearGradient5390"
       osb:paint="solid">
      <stop
         style="stop-color:#ffffff;stop-opacity:1;"
         offset="0"
         id="stop5392" />
    </linearGradient>
    <linearGradient
       id="linearGradient5384"
       osb:paint="solid">
      <stop
         style="stop-color:#ffffff;stop-opacity:1;"
         offset="0"
         id="stop5386" />
    </linearGradient>
    <linearGradient
       id="linearGradient5364"
       osb:paint="gradient">
      <stop
         style="stop-color:#ffffff;stop-opacity:1;"
         offset="0"
         id="stop5366" />
      <stop
         style="stop-color:#ffffff;stop-opacity:0;"
         offset="1"
         id="stop5368" />
    </linearGradient>
    <linearGradient
       id="linearGradient6368"
       osb:paint="solid">
      <stop
         style="stop-color:#ffffff;stop-opacity:1;"
         offset="0"
         id="stop6370" />
    </linearGradient>
    <linearGradient
       inkscape:collect="always"
       xlink:href="#linearGradient5364"
       id="linearGradient5370"
       x1="194.76443"
       y1="515.0025"
       x2="424.06525"
       y2="515.0025"
       gradientUnits="userSpaceOnUse" />
    <linearGradient
       inkscape:collect="always"
       xlink:href="#linearGradient5390"
       id="linearGradient5394"
       x1="195.26443"
       y1="515.0025"
       x2="423.56525"
       y2="515.0025"
       gradientUnits="userSpaceOnUse" />
    <linearGradient
       inkscape:collect="always"
       xlink:href="#linearGradient5364"
       id="linearGradient5396"
       gradientUnits="userSpaceOnUse"
       x1="194.76443"
       y1="515.0025"
       x2="424.06525"
       y2="515.0025" />
    <linearGradient
       inkscape:collect="always"
       xlink:href="#linearGradient5364"
       id="linearGradient5398"
       gradientUnits="userSpaceOnUse"
       x1="194.76443"
       y1="515.0025"
       x2="424.06525"
       y2="515.0025" />
    <linearGradient
       inkscape:collect="always"
       xlink:href="#linearGradient5390"
       id="linearGradient5404"
       gradientUnits="userSpaceOnUse"
       x1="195.26443"
       y1="646.82239"
       x2="412.79886"
       y2="402.01404" />
    <linearGradient
       inkscape:collect="always"
       xlink:href="#linearGradient5390"
       id="linearGradient5406"
       gradientUnits="userSpaceOnUse"
       x1="195.26443"
       y1="515.0025"
       x2="423.56525"
       y2="515.0025" />
    <linearGradient
       inkscape:collect="always"
       xlink:href="#linearGradient5390"
       id="linearGradient5457"
       gradientUnits="userSpaceOnUse"
       x1="195.26443"
       y1="646.82239"
       x2="412.79886"
       y2="402.01404" />
    <linearGradient
       inkscape:collect="always"
       xlink:href="#linearGradient5364"
       id="linearGradient5459"
       gradientUnits="userSpaceOnUse"
       x1="194.76443"
       y1="515.0025"
       x2="424.06525"
       y2="515.0025" />
    <linearGradient
       inkscape:collect="always"
       xlink:href="#linearGradient5364"
       id="linearGradient3306"
       gradientUnits="userSpaceOnUse"
       x1="194.76443"
       y1="515.0025"
       x2="424.06525"
       y2="515.0025"
       gradientTransform="matrix(0.61036705,-0.37209618,0.85557966,0.72453811,-96.345257,415.76922)" />
    <linearGradient
       inkscape:collect="always"
       xlink:href="#linearGradient5364"
       id="linearGradient3309"
       gradientUnits="userSpaceOnUse"
       x1="194.76443"
       y1="515.0025"
       x2="424.06525"
       y2="515.0025"
       gradientTransform="matrix(0.57610949,-0.42320369,0.91471395,0.64828267,-84.422976,476.85321)" />
    <linearGradient
       inkscape:collect="always"
       xlink:href="#linearGradient5390"
       id="linearGradient3312"
       gradientUnits="userSpaceOnUse"
       x1="195.26443"
       y1="515.0025"
       x2="423.56525"
       y2="515.0025"
       gradientTransform="matrix(0.64427854,-0.69245094,1.6302734,0.95449733,-629.12527,535.79237)" />
    <linearGradient
       inkscape:collect="always"
       xlink:href="#linearGradient5390"
       id="linearGradient3315"
       gradientUnits="userSpaceOnUse"
       x1="195.26443"
       y1="515.0025"
       x2="423.56525"
       y2="515.0025"
       gradientTransform="matrix(0.81428896,-0.62709365,1.7616693,1.1059079,-705.41176,440.92948)" />
  </defs>
  <sodipodi:namedview
     id="base"
     pagecolor="#ffffff"
     bordercolor="#666666"
     borderopacity="1.0"
     inkscape:pageopacity="0.0"
     inkscape:pageshadow="2"
     inkscape:zoom="0.6974565"
     inkscape:cx="356.42686"
     inkscape:cy="454.06531"
     inkscape:document-units="px"
     inkscape:current-layer="layer1"
     showgrid="true"
     inkscape:snap-center="true"
     inkscape:snap-page="true"
     inkscape:window-width="1366"
     inkscape:window-height="706"
     inkscape:window-x="-8"
     inkscape:window-y="-8"
     inkscape:window-maximized="1"
     inkscape:snap-global="false">
    <inkscape:grid
       type="xygrid"
       id="grid2985"
       empspacing="1"
       visible="true"
       enabled="true"
       snapvisiblegridlinesonly="true" />
  </sodipodi:namedview>
  <metadata
     id="metadata7">
    <rdf:RDF>
      <cc:Work
         rdf:about="">
        <dc:format>image/svg+xml</dc:format>
        <dc:type
           rdf:resource="http://purl.org/dc/dcmitype/StillImage" />
        <dc:title />
      </cc:Work>
    </rdf:RDF>
  </metadata>
  <g
     inkscape:label="Layer 1"
     inkscape:groupmode="layer"
     id="layer1"
     transform="translate(0,-308.2677)">
    <g
       id="g5677"
       transform="matrix(0.8351954,-0.11986023,0.112286,0.89153335,220.26734,553.10133)">
      <path
         d="m 392.85714,635.93359 c 0,0.39449 -1.27918,0.71429 -2.85714,0.71429 -1.57796,0 -2.85714,-0.3198 -2.85714,-0.71429 0,-0.39449 1.27918,-0.71428 2.85714,-0.71428 1.57796,0 2.85714,0.31979 2.85714,0.71428 z"
         sodipodi:ry="0.71428573"
         sodipodi:rx="2.8571429"
         sodipodi:cy="635.93359"
         sodipodi:cx="390"
         id="path2993"
         style="fill:#2f1111;fill-opacity:1"
         sodipodi:type="arc" />
      <g
         id="g5435"
         transform="translate(362.77074,-72.74928)">
        <path
           sodipodi:type="arc"
           style="fill:none;stroke:#000000;stroke-width:6.29245377;stroke-miterlimit:4;stroke-opacity:1;stroke-dasharray:none"
           id="path2991"
           sodipodi:cx="381.42856"
           sodipodi:cy="634.50507"
           sodipodi:rx="55.714287"
           sodipodi:ry="43.57143"
           d="m 437.14285,634.50507 c 0,24.06383 -24.94414,43.57143 -55.71429,43.57143 -30.77015,0 -55.71429,-19.5076 -55.71429,-43.57143 0,-24.06384 24.94414,-43.57143 55.71429,-43.57143 30.77015,0 55.71429,19.50759 55.71429,43.57143 z"
           transform="matrix(0.78851891,-0.23405496,0.24135295,0.65947072,-22.474745,241.05707)" />
        <path
           sodipodi:type="arc"
           style="fill:none;stroke:#000000;stroke-width:8.05106831;stroke-miterlimit:4;stroke-opacity:1;stroke-dasharray:none"
           id="path2991-9"
           sodipodi:cx="381.42856"
           sodipodi:cy="634.50507"
           sodipodi:rx="55.714287"
           sodipodi:ry="43.57143"
           d="m 437.14285,634.50507 c 0,24.06383 -24.94414,43.57143 -55.71429,43.57143 -30.77015,0 -55.71429,-19.5076 -55.71429,-43.57143 0,-24.06384 24.94414,-43.57143 55.71429,-43.57143 30.77015,0 55.71429,19.50759 55.71429,43.57143 z"
           transform="matrix(0.53309129,-0.3611918,0.39850567,0.43256214,68.809879,411.38245)" />
        <path
           style="fill:none;stroke:#000000;stroke-width:1px;stroke-linecap:butt;stroke-linejoin:miter;stroke-opacity:1"
           d="m 381.42857,575.21933 c -1.42857,1.42857 0,0 0,0 z"
           id="path3787"
           inkscape:connector-curvature="0" />
        <path
           style="fill:none;stroke:#000000;stroke-width:5;stroke-linecap:butt;stroke-linejoin:miter;stroke-miterlimit:4;stroke-opacity:1;stroke-dasharray:none"
           d="M 386.31228,573.88797 C 220.25001,483.7698 212.71405,513.85634 212.71405,513.85634 c 0,0 -13.65158,5.1788 -8.04162,25.86 3.15928,11.64675 5.91642,17.15723 5.91642,17.15723"
           id="path3795"
           inkscape:connector-curvature="0"
           sodipodi:nodetypes="ccsc" />
        <g
           id="g5671">
          <path
             sodipodi:nodetypes="ccsc"
             inkscape:connector-curvature="0"
             id="path3795-4"
             d="M 554.35347,526.21803 C 388.29121,436.09986 380.75525,466.1864 380.75525,466.1864 c 0,0 -13.65158,5.1788 -8.04162,25.86 3.15928,11.64675 5.91642,17.15723 5.91642,17.15723"
             style="fill:none;stroke:#000000;stroke-width:5;stroke-linecap:butt;stroke-linejoin:miter;stroke-miterlimit:4;stroke-opacity:1;stroke-dasharray:none" />
          <path
             inkscape:transform-center-y="-38.571429"
             inkscape:transform-center-x="22.857143"
             transform="matrix(0.99594792,0.0899319,-0.0899319,0.99594792,58.036565,-161.49451)"
             d="m 550,602.36218 c 0,27.61424 -55.96441,50 -125,50 -69.03559,0 -125,-22.38576 -125,-50 0,-27.61423 55.96441,-50 125,-50 69.03559,0 125,22.38577 125,50 z"
             sodipodi:ry="50"
             sodipodi:rx="125"
             sodipodi:cy="602.36218"
             sodipodi:cx="425"
             id="path2989"
             style="fill:#2f1111;fill-opacity:1"
             sodipodi:type="arc" />
          <path
             transform="matrix(1.600565,0.16655796,-0.19180694,1.4613355,-12.296677,-208.69826)"
             d="m 400,402.36218 c 0,27.61424 -55.96441,50 -125,50 -69.03559,0 -125,-22.38576 -125,-50 0,-27.61423 55.96441,-50 125,-50 69.03559,0 125,22.38577 125,50 z"
             sodipodi:ry="50"
             sodipodi:rx="125"
             sodipodi:cy="402.36218"
             sodipodi:cx="275"
             id="path2987"
             style="fill:#2f1111;fill-opacity:1;stroke:#ffffff;stroke-width:1.00014567;stroke-miterlimit:4;stroke-opacity:1;stroke-dasharray:none"
             sodipodi:type="arc" />
          <path
             inkscape:connector-curvature="0"
             id="path3797"
             d="m 475.82878,563.56246 c 15.1764,-6.30333 15.80154,-3.94387 15.80154,-3.94387"
             style="fill:none;stroke:#000000;stroke-width:4.32755136;stroke-linecap:butt;stroke-linejoin:miter;stroke-miterlimit:4;stroke-opacity:1;stroke-dasharray:none" />
        </g>
      </g>
    </g>
    <rect
       style="fill:#501616;stroke:#ffffff;stroke-width:0.84200454;stroke-opacity:1"
       id="rect2990-4-1"
       width="227.05574"
       height="377.10577"
       x="-681.65942"
       y="44.472816"
       ry="28.410015"
       rx="24.82869"
       transform="matrix(-0.01199139,-0.9999281,0.99995391,-0.00960086,0,0)" />
    <rect
       style="fill:#f2f2f2;stroke:#ffffff;stroke-width:0.84201199;stroke-opacity:1"
       id="rect3010-8-5"
       width="159.97337"
       height="327.69202"
       x="-645.96704"
       y="66.44281"
       rx="6.077323"
       ry="7.2651501"
       transform="matrix(-0.01735454,-0.9998494,0.999978,-0.00663351,0,0)" />
    <rect
       style="fill:#501616;stroke:#ffffff;stroke-width:0.84671545000000004;stroke-opacity:1"
       id="rect3063-5-7"
       width="15.456963"
       height="60.717731"
       x="466.43048"
       y="315.86487"
       rx="7.7284803"
       ry="3.5716302"
       transform="matrix(0.78193209,0.62336362,-0.7462468,0.66566937,0,0)" />
    <rect
       style="fill:#501616;stroke:#ffffff;stroke-width:0.85076432999999996;stroke-opacity:1"
       id="rect3063-9-5-6"
       width="19.914631"
       height="135.28694"
       x="503.10818"
       y="332.89075"
       rx="9.9573154"
       ry="7.9580545"
       transform="matrix(0.85093967,0.52526343,-0.73994164,0.67267107,0,0)" />
    <path
       sodipodi:type="arc"
       style="fill:#ffffff;stroke:#ffffff;stroke-opacity:1"
       id="path3137-1"
       sodipodi:cx="630"
       sodipodi:cy="222.36218"
       sodipodi:rx="10"
       sodipodi:ry="10"
       d="m 640,222.36218 c 0,5.52285 -4.47715,10 -10,10 -5.52285,0 -10,-4.47715 -10,-10 0,-5.52284 4.47715,-10 10,-10 5.52285,0 10,4.47716 10,10 z"
       transform="matrix(-0.00623358,-0.55955552,0.6344384,-0.00655731,96.073641,821.2258)" />
    <rect
       style="fill:#501616;stroke:#ffffff;stroke-width:0.84200341000000001;stroke-opacity:1"
       id="rect3244"
       width="137.90048"
       height="32.908718"
       x="178.8979"
       y="696.78986"
       rx="10.607734"
       ry="7.9904637" />
    <rect
       style="opacity:0.9557522;fill:#550000;fill-opacity:1;stroke:#ffffff;stroke-width:0.72159696;stroke-linejoin:miter;stroke-miterlimit:4;stroke-opacity:1;stroke-dasharray:none"
       id="rect5827"
       width="23.336098"
       height="22.843151"
       x="485.58728"
       y="529.46301"
       rx="3.4955471"
       ry="22.843151" />
    <rect
       style="fill:#501616;stroke:#ffffff;stroke-width:0.84200001;stroke-linejoin:round;stroke-miterlimit:4;stroke-opacity:1;stroke-dasharray:none"
       id="rect2990-4"
       width="169.71977"
       height="246.8974"
       x="354.60559"
       y="534.50702"
       ry="18.60051"
       rx="18.558966" />
    <rect
       style="fill:#f2f2f2;stroke:#ffffff;stroke-width:0.84200001;stroke-linejoin:round;stroke-miterlimit:4;stroke-opacity:1;stroke-dasharray:none"
       id="rect3010-8"
       width="137.27432"
       height="170.18745"
       x="370.67319"
       y="566.55249"
       rx="5.2149963"
       ry="8.8363934" />
    <rect
       style="fill:#ffffff;stroke:#ffffff;stroke-width:0.84200001;stroke-linejoin:round;stroke-miterlimit:4;stroke-opacity:1;stroke-dasharray:none"
       id="rect2990-1-7-2"
       width="32.566078"
       height="21.962135"
       x="425.39804"
       y="748.45105"
       ry="9.7291374"
       rx="5.5170784" />
    <rect
       style="fill:#501616;stroke:#ffffff;stroke-width:0.84698045000000000;stroke-linejoin:round;stroke-miterlimit:4;stroke-opacity:1;stroke-dasharray:none"
       id="rect3063-5"
       width="10.413124"
       height="40.866768"
       x="696.71051"
       y="223.94595"
       rx="5.206562"
       ry="2.4039271"
       transform="matrix(0.80324742,0.59564551,-0.71130958,0.70287885,0,0)" />
    <rect
       style="fill:#501616;stroke:#ffffff;stroke-width:0.85696161000000004;stroke-linejoin:round;stroke-miterlimit:4;stroke-opacity:1;stroke-dasharray:none"
       id="rect3063-9-5"
       width="13.398616"
       height="91.005684"
       x="731.42114"
       y="313.29605"
       rx="6.6993079"
       ry="5.3532748"
       transform="matrix(0.88477308,0.4660221,-0.68065979,0.73259965,0,0)" />
    <path
       sodipodi:type="arc"
       style="fill:#ffffff;stroke:#ffffff;stroke-width:2.0957849;stroke-linejoin:round;stroke-miterlimit:4;stroke-opacity:1;stroke-dasharray:none"
       id="path3137"
       sodipodi:cx="630"
       sodipodi:cy="222.36218"
       sodipodi:rx="10"
       sodipodi:ry="10"
       d="m 640,222.36218 a 10,10 0 1 1 -20,0 10,10 0 1 1 20,0 z"
       transform="matrix(0.38856879,0,0,0.41539651,196.06952,455.6211)" />
    <rect
       style="fill:#501616;stroke:#ffffff;stroke-width:0.84200001000000002;stroke-linejoin:round;stroke-miterlimit:4;stroke-opacity:1;stroke-dasharray:none"
       id="rect2990-1-7-2-1"
       width="19.785715"
       height="12.730631"
       x="431.30228"
       y="752.73157"
       ry="5.6396179"
       rx="3.3519337" />
    <rect
       style="fill:#501616;stroke:#ffffff;stroke-width:0.84200341;stroke-miterlimit:4;stroke-opacity:1;stroke-dasharray:none"
       id="rect2990"
       width="114.56799"
       height="188.02431"
       x="17.611227"
       y="593.62537"
       ry="14.165188"
       rx="12.528083" />
    <rect
       style="fill:#f2f2f2;stroke:#ffffff;stroke-width:0.84200341;stroke-miterlimit:4;stroke-opacity:1;stroke-dasharray:none"
       id="rect2990-1"
       width="15.24898"
       height="5.9291801"
       x="68.059471"
       y="601.02441"
       ry="2.9645901"
       rx="1.6674858" />
    <rect
       style="fill:#f2f2f2;stroke:#ffffff;stroke-width:0.84200341;stroke-miterlimit:4;stroke-opacity:1;stroke-dasharray:none"
       id="rect3010"
       width="92.665947"
       height="129.60597"
       x="28.457539"
       y="618.02948"
       rx="3.5203421"
       ry="6.729341" />
    <rect
       style="fill:#ffffff;stroke:#ffffff;stroke-width:0.84200341;stroke-miterlimit:4;stroke-opacity:1;stroke-dasharray:none"
       id="rect2990-1-7"
       width="19.682863"
       height="14.168778"
       x="65.399147"
       y="756.55408"
       ry="6.5475297"
       rx="4.8304725" />
    <rect
       style="fill:#501616;stroke:#ffffff;stroke-width:0.84200341000000001;stroke-miterlimit:4;stroke-opacity:1;stroke-dasharray:none"
       id="rect2990-1-7-4"
       width="12.588649"
       height="9.2250195"
       x="68.910599"
       y="759.05084"
       ry="4.2629709"
       rx="3.0894446" />
    <rect
       style="fill:#501616;stroke:#ffffff;stroke-width:0.84335439999999995;stroke-miterlimit:4;stroke-opacity:1;stroke-dasharray:none"
       id="rect3063"
       width="5.9392581"
       height="23.55435"
       x="462.42136"
       y="456.51047"
       rx="2.969629"
       ry="1.3855499"
       transform="matrix(0.78128019,0.62418047,-0.68464667,0.72887512,0,0)" />
    <rect
       style="fill:#501616;stroke:#ffffff;stroke-width:0.85108423000000000;stroke-miterlimit:4;stroke-opacity:1;stroke-dasharray:none"
       id="rect3063-9"
       width="7.8754463"
       height="54.589508"
       x="466.78091"
       y="522.37238"
       rx="3.9377232"
       ry="3.2111473"
       transform="matrix(0.87221159,0.48912876,-0.65749825,0.75345607,0,0)" />
    <path
       style="opacity:0.9557522;fill:#550000;fill-opacity:1;stroke:#ffffff;stroke-width:1;stroke-linejoin:round;stroke-miterlimit:4;stroke-opacity:1;stroke-dasharray:none"
       id="path6800"
       d=""
       inkscape:connector-curvature="0" />
    <path
       id="path3062"
       style="fill:#550000;stroke:url(#linearGradient3315);stroke-width:1.41607225"
       d="m 149.63106,749.72497 c -20.88341,-13.97996 -26.19266,-6.11746 3.00057,5.35325 l 95.98636,37.71537 c 29.19321,11.4707 319.12921,96.65392 287.22531,43.99069 -9.88495,-16.31689 80.08835,84.66571 49.71799,78.93585 L 417.63617,884.03835 C 306.35722,863.04378 174.67615,766.4909 149.63106,749.72497 z"
       inkscape:connector-curvature="0"
       sodipodi:nodetypes="sssssss" />
    <path
       style="fill:#550000;stroke:url(#linearGradient3312);stroke-width:1.32054782"
       inkscape:transform-center-x="-6.121918"
       inkscape:transform-center-y="-0.9228545"
       d="m 691.40216,859.76934 4.68764,-1.15902 -159.26336,84.26673 31.15196,-70.72528 -123.64609,-72.74429 38.09148,24.06405 z"
       id="path3057"
       inkscape:connector-curvature="0"
       sodipodi:nodetypes="ccccccc" />
    <path
       id="path3062-2"
       style="fill:#550000;stroke:#ffffff;stroke-width:0.87856543;stroke-opacity:1"
       d="m 418.80997,486.67696 c -16.80246,-0.33261 -14.62697,-5.75145 4.30297,-1.51494 l 62.24104,13.92954 c 18.92993,4.23654 180.57213,60.8932 137.22366,75.01233 -13.43087,4.3746 94.26887,-18.42553 77.2095,-25.3305 L 608.97548,512.01638 C 546.46886,486.71614 438.96088,487.07583 418.80997,486.67696 z"
       inkscape:connector-curvature="0"
       sodipodi:nodetypes="sssssss" />
    <path
       style="fill:#550000;stroke:#ffffff;stroke-width:1.02733791;stroke-opacity:1"
       inkscape:transform-center-x="-11.824613"
       inkscape:transform-center-y="-18.090211"
       d="m 736.76601,606.88934 2.34892,2.53764 -54.26808,-111.07613 -15.45935,56.99093 -111.77257,4.69424 -1.40228,-0.52674 z"
       id="path3057-3"
       inkscape:connector-curvature="0"
       sodipodi:nodetypes="ccccccc" />
    <path
       id="path3062-6"
       style="fill:#550000;stroke:url(#linearGradient3309);stroke-width:0.87211931;stroke-opacity:1"
       d="m 390.24521,646.73334 c -10.72612,-8.23755 -14.99068,-3.08169 1.0907,3.30756 l 52.87502,21.00765 c 16.08136,6.38924 189.99558,50.61309 177.82545,18.14778 -3.77073,-10.05887 23.07315,60.47995 6.35604,56.58927 L 533.97161,723.81039 C 472.71901,709.55465 403.10886,656.6125 390.24521,646.73334 z"
       inkscape:connector-curvature="0"
       sodipodi:nodetypes="sssssss" />
    <path
       style="fill:#550000;stroke:url(#linearGradient3306);stroke-width:0.87211931;stroke-opacity:1"
       inkscape:transform-center-x="-12.639503"
       inkscape:transform-center-y="-11.534109"
       d="m 710.99736,726.16202 3.45363,-0.31951 -119.93845,36.80296 24.15076,-45.06643 -58.78388,-49.33496 -1.30533,-0.36359 z"
       id="path3057-8"
       inkscape:connector-curvature="0"
       sodipodi:nodetypes="ccccccc" />
    <path
       style="fill:#550000;fill-opacity:1;stroke:#ffffff;stroke-opacity:1"
       id="path5470" />
  </g>
</svg>
