<?xml version="1.0" encoding="UTF-8" standalone="no"?>
<!-- Created with Inkscape (http://www.inkscape.org/) -->

<svg
   xmlns:osb="http://www.openswatchbook.org/uri/2009/osb"
   xmlns:dc="http://purl.org/dc/elements/1.1/"
   xmlns:cc="http://creativecommons.org/ns#"
   xmlns:rdf="http://www.w3.org/1999/02/22-rdf-syntax-ns#"
   xmlns:svg="http://www.w3.org/2000/svg"
   xmlns="http://www.w3.org/2000/svg"
   xmlns:sodipodi="http://sodipodi.sourceforge.net/DTD/sodipodi-0.dtd"
   xmlns:inkscape="http://www.inkscape.org/namespaces/inkscape"
   width="412.26001"
   height="288.3212"
   id="svg2"
   version="1.1"
   inkscape:version="0.48.4 r9939"
   sodipodi:docname="siyathu.svg">
  <defs
     id="defs4">
    <linearGradient
       id="linearGradient3763"
       osb:paint="solid">
      <stop
         style="stop-color:#2f1111;stop-opacity:1;"
         offset="0"
         id="stop3765" />
    </linearGradient>
  </defs>
  <sodipodi:namedview
     id="base"
     pagecolor="#ffffff"
     bordercolor="#666666"
     borderopacity="1.0"
     inkscape:pageopacity="0.0"
     inkscape:pageshadow="2"
     inkscape:zoom="0.7"
     inkscape:cx="38.548919"
     inkscape:cy="139.51678"
     inkscape:document-units="px"
     inkscape:current-layer="layer1"
     showgrid="true"
     inkscape:snap-global="false"
     inkscape:window-width="1366"
     inkscape:window-height="721"
     inkscape:window-x="-4"
     inkscape:window-y="-4"
     inkscape:window-maximized="1"
     fit-margin-top="0"
     fit-margin-left="0"
     fit-margin-right="0"
     fit-margin-bottom="0">
    <inkscape:grid
       type="xygrid"
       id="grid2985"
       empspacing="10"
       visible="true"
       enabled="true"
       snapvisiblegridlinesonly="true"
       originx="-149.60826px"
       originy="-415.7143px" />
  </sodipodi:namedview>
  <metadata
     id="metadata7">
    <rdf:RDF>
      <cc:Work
         rdf:about="">
        <dc:format>image/svg+xml</dc:format>
        <dc:type
           rdf:resource="http://purl.org/dc/dcmitype/StillImage" />
        <dc:title />
      </cc:Work>
    </rdf:RDF>
  </metadata>
  <g
     inkscape:label="Layer 1"
     inkscape:groupmode="layer"
     id="layer1"
     transform="translate(-149.60826,-348.32669)">
    <path
       style="fill:none;stroke:#000000;stroke-width:5;stroke-linecap:butt;stroke-linejoin:miter;stroke-miterlimit:4;stroke-opacity:1;stroke-dasharray:none"
       d="M 554.35347,526.21803 C 388.29121,436.09986 380.75525,466.1864 380.75525,466.1864 c 0,0 -13.65158,5.1788 -8.04162,25.86 3.15928,11.64675 5.91642,17.15723 5.91642,17.15723"
       id="path3795-4"
       inkscape:connector-curvature="0"
       sodipodi:nodetypes="ccsc" />
    <path
       sodipodi:type="arc"
       style="fill:#2f1111;fill-opacity:1"
       id="path2989"
       sodipodi:cx="425"
       sodipodi:cy="602.36218"
       sodipodi:rx="125"
       sodipodi:ry="50"
       d="m 550,602.36218 a 125,50 0 1 1 -250,0 125,50 0 1 1 250,0 z"
       transform="matrix(0.99594792,0.0899319,-0.0899319,0.99594792,58.036565,-161.49451)"
       inkscape:transform-center-x="22.857143"
       inkscape:transform-center-y="-38.571429" />
    <path
       sodipodi:type="arc"
       style="fill:none;stroke:#000000;stroke-width:6.29245377;stroke-miterlimit:4;stroke-opacity:1;stroke-dasharray:none"
       id="path2991"
       sodipodi:cx="381.42856"
       sodipodi:cy="634.50507"
       sodipodi:rx="55.714287"
       sodipodi:ry="43.57143"
       d="m 437.14285,634.50507 a 55.714287,43.57143 0 1 1 -111.42858,0 55.714287,43.57143 0 1 1 111.42858,0 z"
       transform="matrix(0.78851891,-0.23405496,0.24135295,0.65947072,-22.474745,241.05707)" />
    <path
       sodipodi:type="arc"
       style="fill:#2f1111;fill-opacity:1"
       id="path2993"
       sodipodi:cx="390"
       sodipodi:cy="635.93359"
       sodipodi:rx="2.8571429"
       sodipodi:ry="0.71428573"
       d="m 392.85714,635.93359 a 2.8571429,0.71428573 0 1 1 -5.71428,0 2.8571429,0.71428573 0 1 1 5.71428,0 z" />
    <path
       sodipodi:type="arc"
       style="fill:#2f1111;fill-opacity:1;stroke:#ffffff;stroke-width:1.00014567;stroke-miterlimit:4;stroke-opacity:1;stroke-dasharray:none"
       id="path2987"
       sodipodi:cx="275"
       sodipodi:cy="402.36218"
       sodipodi:rx="125"
       sodipodi:ry="50"
       d="m 400,402.36218 a 125,50 0 1 1 -250,0 125,50 0 1 1 250,0 z"
       transform="matrix(1.600565,0.16655796,-0.19180694,1.4613355,-12.296677,-208.69826)" />
    <path
       sodipodi:type="arc"
       style="fill:none;stroke:#000000;stroke-width:8.05106831;stroke-miterlimit:4;stroke-opacity:1;stroke-dasharray:none"
       id="path2991-9"
       sodipodi:cx="381.42856"
       sodipodi:cy="634.50507"
       sodipodi:rx="55.714287"
       sodipodi:ry="43.57143"
       d="m 437.14285,634.50507 a 55.714287,43.57143 0 1 1 -111.42858,0 55.714287,43.57143 0 1 1 111.42858,0 z"
       transform="matrix(0.53309129,-0.3611918,0.39850567,0.43256214,68.809879,411.38245)" />
    <path
       style="fill:none;stroke:#000000;stroke-width:1px;stroke-linecap:butt;stroke-linejoin:miter;stroke-opacity:1"
       d="m 381.42857,575.21933 c -1.42857,1.42857 0,0 0,0 z"
       id="path3787"
       inkscape:connector-curvature="0" />
    <path
       style="fill:none;stroke:#000000;stroke-width:5;stroke-linecap:butt;stroke-linejoin:miter;stroke-miterlimit:4;stroke-opacity:1;stroke-dasharray:none"
       d="M 386.31228,573.88797 C 220.25001,483.7698 212.71405,513.85634 212.71405,513.85634 c 0,0 -13.65158,5.1788 -8.04162,25.86 3.15928,11.64675 5.91642,17.15723 5.91642,17.15723"
       id="path3795"
       inkscape:connector-curvature="0"
       sodipodi:nodetypes="ccsc" />
    <path
       style="fill:none;stroke:#000000;stroke-width:4.32755136;stroke-linecap:butt;stroke-linejoin:miter;stroke-miterlimit:4;stroke-opacity:1;stroke-dasharray:none"
       d="m 475.82878,563.56246 c 15.1764,-6.30333 15.80154,-3.94387 15.80154,-3.94387"
       id="path3797"
       inkscape:connector-curvature="0" />
  </g>
</svg>
